<?xml version="1.0" encoding="UTF-8" standalone="no"?>
<!DOCTYPE svg PUBLIC "-//W3C//DTD SVG 1.1//EN" "http://www.w3.org/Graphics/SVG/1.1/DTD/svg11.dtd">
<svg width="100%" height="100%" viewBox="0 0 2005 1614" version="1.1" xmlns="http://www.w3.org/2000/svg" xmlns:xlink="http://www.w3.org/1999/xlink" xml:space="preserve" xmlns:serif="http://www.serif.com/" style="fill-rule:evenodd;clip-rule:evenodd;stroke-linejoin:round;stroke-miterlimit:2;">
    <g id="Mesa-de-trabajo1" serif:id="Mesa de trabajo1" transform="matrix(1.30183,0,0,1.27977,-1330.44,-821.318)">
        <rect x="1021.98" y="641.769" width="1539.97" height="1260.68" style="fill:none;"/>
        <g transform="matrix(0.76815,0,0,0.78139,507.831,402.456)">
            <g transform="matrix(1.26622,0,0,1.22246,-415.426,59.3302)">
                <g transform="matrix(0.30645,0.219536,-0.437298,0.610423,1572.09,234.381)">
                    <circle cx="1530.09" cy="709.741" r="322.084" style="fill:rgb(221,59,58);"/>
                    <clipPath id="_clip1">
                        <circle cx="1530.09" cy="709.741" r="322.084"/>
                    </clipPath>
                    <g clip-path="url(#_clip1)">
                        <g transform="matrix(1.07319,-1.72941e-16,-5.04241e-16,1.20518,-349.395,-174.28)">
                            <circle cx="1530.09" cy="709.741" r="322.084" style="fill:rgb(174,44,47);"/>
                        </g>
                    </g>
                    <path d="M1529.94,385.406C1439.54,384.73 1356.24,420.429 1295.13,479.045C1234.03,537.648 1195.24,619.187 1192.94,709.486C1191.38,799.758 1226.54,881.771 1285.06,941.244C1346.88,1004.08 1435.34,1041.74 1530.75,1041.83C1624.96,1041.6 1712.08,1004.49 1773.21,942.656C1832.08,883.116 1867.61,800.734 1865.93,709.973C1863.69,620.259 1825.47,539.196 1765.21,480.659C1704.19,421.388 1620.73,385.167 1529.97,385.82L1529.94,385.406ZM1530.21,389.492C1617.59,390.12 1695.37,426.371 1751.08,484.11C1807.05,542.12 1840.61,621.796 1838.42,709.508C1836.79,797.334 1799.42,876.634 1740.77,933.834C1685.54,987.688 1612.16,1022.03 1529.43,1021.82C1484.96,1021.82 1443.1,1011.49 1405.35,993.616C1373.19,978.392 1344.14,957.757 1319.02,932.949C1261.25,875.892 1224.58,797.138 1223.07,709.995C1220.82,621.701 1254.76,541.549 1311.25,483.428C1366.69,426.386 1443.67,390.555 1530.24,389.907L1530.21,389.492Z"/>
                </g>
                <g transform="matrix(1,0,0,1,390.782,12.0617)">
                    <path d="M1490.3,879.869C1475.02,869.737 1447.54,972.977 1383.16,1042.41C1312.91,1118.17 1225.38,1161.51 1236.95,1177.36C1252.9,1199.21 1340.04,1137.09 1409.79,1056.69C1466.28,991.559 1513.6,895.326 1490.3,879.869Z" style="fill:rgb(218,165,165);"/>
                </g>
            </g>
            <g transform="matrix(-0.858235,-1.11844,1.24351,-0.889394,1921.22,3296.87)">
                <circle cx="1530.09" cy="709.741" r="322.084" style="fill:rgb(221,59,58);"/>
                <clipPath id="_clip2">
                    <circle cx="1530.09" cy="709.741" r="322.084"/>
                </clipPath>
                <g clip-path="url(#_clip2)">
                    <g transform="matrix(-0.740341,0.99934,-0.861221,-0.638018,3402.71,-473.714)">
                        <ellipse cx="1477.02" cy="699.644" rx="276.963" ry="351.222" style="fill:rgb(174,44,47);"/>
                    </g>
                    <g transform="matrix(-0.595274,0.803523,-0.811616,-0.601269,3031.48,-149.245)">
                        <path d="M1884.88,483.264C1837.53,396.213 1831.25,475.436 1831.25,475.436L1649.39,465.05C1649.39,465.05 1568.05,433.619 1535.91,420.732C1460.19,390.359 1196.98,709.96 1526.88,860.437C1563.82,877.285 1619.35,866.071 1666.76,798.851C1693.52,760.911 1821.72,780.878 1857.83,818.982C1893.93,857.086 1851.38,890.5 1851.38,890.5C1851.38,890.5 2019.48,730.767 1884.88,483.264Z" style="fill:rgb(150,44,49);"/>
                    </g>
                    <g transform="matrix(-0.557896,0.75307,-0.707397,-0.524061,2896.47,-97.8355)">
                        <path d="M1884.88,483.264C1837.53,396.213 1831.25,475.436 1831.25,475.436L1649.39,465.05C1649.39,465.05 1568.05,433.619 1535.91,420.732C1460.19,390.359 1196.98,709.96 1526.88,860.437C1563.82,877.285 1587.98,872.343 1635.39,805.123C1662.15,767.183 1821.72,780.878 1857.83,818.982C1893.93,857.086 1851.38,890.5 1851.38,890.5C1851.38,890.5 2019.48,730.767 1884.88,483.264Z" style="fill:rgb(250,200,198);"/>
                        <clipPath id="_clip3">
                            <path d="M1884.88,483.264C1837.53,396.213 1831.25,475.436 1831.25,475.436L1649.39,465.05C1649.39,465.05 1568.05,433.619 1535.91,420.732C1460.19,390.359 1196.98,709.96 1526.88,860.437C1563.82,877.285 1587.98,872.343 1635.39,805.123C1662.15,767.183 1821.72,780.878 1857.83,818.982C1893.93,857.086 1851.38,890.5 1851.38,890.5C1851.38,890.5 2019.48,730.767 1884.88,483.264Z"/>
                        </clipPath>
                        <g clip-path="url(#_clip3)">
                            <g transform="matrix(1.32702,5.02047e-16,-2.1633e-16,1.21745,-657.867,-207.758)">
                                <ellipse cx="1477.02" cy="699.644" rx="276.963" ry="351.222" style="fill:rgb(249,180,179);"/>
                            </g>
                        </g>
                    </g>
                </g>
                <path d="M1530.04,386.288C1438.17,385.684 1354.89,423.42 1295.38,484.455C1238.63,542.651 1203.55,622.029 1202.96,709.584C1202.54,797.437 1236.88,877.429 1293.13,936.387C1352.81,998.937 1437.09,1037.78 1530.31,1037.91C1623.23,1037.67 1707.2,998.931 1766.69,936.58C1822.91,877.661 1857.23,797.709 1856.77,709.883C1856.19,622.456 1821.22,543.194 1764.68,485.013C1705.22,423.834 1621.94,385.961 1530.05,386.54L1530.04,386.288ZM1530.13,388.772C1620.8,389.344 1702.44,427.587 1760.25,488.595C1814.82,546.179 1848.15,624.055 1847.58,709.598C1847.13,794.977 1812.93,872.342 1757.79,929.245C1700.05,988.815 1619.28,1025.97 1529.87,1025.74C1440.53,1025.87 1359.88,988.613 1302.3,928.967C1247.46,872.15 1213.46,795.013 1213.05,709.897C1212.47,624.247 1245.87,546.294 1300.51,488.683C1358.24,427.807 1439.68,389.619 1530.14,389.024L1530.13,388.772Z"/>
            </g>
            <g transform="matrix(-1.91896,1.78286,-1.8182,-1.8346,3036.58,988.008)">
                <g transform="matrix(0.505675,0,0,0.505675,531.707,498.629)">
                    <path d="M0,-37.368C-58.904,95.033 -47.789,137.794 -47.789,137.794C-47.789,137.794 85.405,139.085 116.221,129.233C147.048,119.377 211.424,-4.789 193.86,-45.279C176.296,-85.769 92.017,-176.453 92.017,-176.453C92.017,-176.453 58.904,-169.768 0,-37.368" style="fill:rgb(221,59,58);fill-rule:nonzero;"/>
                </g>
                <g transform="matrix(0.505675,0,0,0.505675,511.291,413.261)">
                    <path d="M0,298.308C41.246,298.489 131.346,297.366 154.136,290.079C165.561,286.427 190.108,255.027 209.844,210.667C226.462,173.314 232.931,141.223 226.725,126.919C212.117,93.242 147.687,21.395 130.595,2.653C120.628,9.522 91.656,36.439 47.851,134.901C3.418,234.774 -0.393,282.54 0,298.308M8.465,315.034C-0.529,315.034 -6.413,314.982 -7.494,314.972L-13.751,314.91L-15.351,308.753C-15.835,306.889 -26.53,261.579 32.897,128.004C57.657,72.349 81.005,31.557 102.29,6.76C118.511,-12.136 128.209,-15.308 130.794,-15.83L135.238,-16.726L138.352,-13.376C141.833,-9.63 223.812,78.831 241.743,120.165C253.5,147.27 233.809,197.308 224.798,217.564C207.95,255.434 180.19,299.27 159.055,306.027C133.603,314.163 45.155,315.034 8.465,315.034" style="fill-rule:nonzero;"/>
                </g>
                <g transform="matrix(-0.211782,0.45919,0.45919,0.211782,607.462,511.754)">
                    <path d="M13.728,-21.448C60.84,-20.811 99.031,-13.525 99.031,-5.177C99.031,3.172 60.84,9.423 13.728,8.785C-33.384,8.148 -71.577,0.862 -71.577,-7.486C-71.576,-15.835 -33.384,-22.086 13.728,-21.448" style="fill:rgb(218,165,165);fill-rule:nonzero;"/>
                </g>
                <g transform="matrix(0.299438,0.407485,0.407485,-0.299438,640.373,502.59)">
                    <path d="M-79.082,-3.237L-74.149,-3.237C-74.149,-3.237 -63.329,-87.821 17.133,-164.015C17.133,-164.015 -58.049,-112.518 -98.259,-35.091C-105.859,-20.457 -95.525,-3.237 -79.082,-3.237" style="fill:rgb(218,165,165);fill-rule:nonzero;"/>
                </g>
            </g>
            <g transform="matrix(1.5846,0,0,1.39192,-915.649,12.0224)">
                <g transform="matrix(0.30645,0.219536,-0.437298,0.610423,1181.04,231.731)">
                    <circle cx="1530.09" cy="709.741" r="322.084" style="fill:rgb(221,59,58);"/>
                    <clipPath id="_clip4">
                        <circle cx="1530.09" cy="709.741" r="322.084"/>
                    </clipPath>
                    <g clip-path="url(#_clip4)">
                        <g transform="matrix(1.07319,-1.72941e-16,-5.04241e-16,1.20518,-349.395,-174.28)">
                            <circle cx="1530.09" cy="709.741" r="322.084" style="fill:rgb(174,44,47);"/>
                        </g>
                    </g>
                    <path d="M1529.64,385.735C1440.97,385.158 1359.4,419.669 1299.1,476.425C1236.77,535.092 1197.27,617.535 1195.37,708.933C1194.1,798.863 1229.44,880.551 1287.84,939.87C1349.48,1002.49 1437.05,1040.29 1532.09,1040.37C1623.44,1040.16 1707.62,1004.5 1767.72,945.215C1828.11,885.652 1864.8,802.369 1863.38,710.457C1861.53,620.927 1823.82,539.989 1764.14,481.438C1703.52,421.967 1620.41,385.519 1529.73,386.089L1529.64,385.735ZM1530.46,389.223C1618.22,389.773 1696.63,426.053 1752.78,483.966C1808.95,541.91 1842.78,621.453 1840.98,709.025C1839.59,798.384 1801.2,878.961 1740.92,936.511C1685.09,989.823 1611,1023.47 1528.1,1023.28C1444.69,1023.35 1370.61,988.468 1315.61,933.689C1258.2,876.506 1221.87,797.708 1220.64,710.549C1218.78,620.674 1254.24,539.243 1312.61,480.812C1368.38,424.992 1444.93,390.136 1530.54,389.577L1530.46,389.223Z"/>
                </g>
                <g transform="matrix(1,0,0,1,-0.269252,9.4118)">
                    <path d="M1490.3,879.869C1475.02,869.737 1447.54,972.977 1383.16,1042.41C1312.91,1118.17 1225.38,1161.51 1236.95,1177.36C1252.9,1199.21 1340.04,1137.09 1409.79,1056.69C1466.28,991.559 1513.6,895.326 1490.3,879.869Z" style="fill:rgb(218,165,165);"/>
                </g>
            </g>
            <g transform="matrix(1.25525,0,0,1.14995,-396.52,148.475)">
                <ellipse cx="1791.77" cy="866.556" rx="21.522" ry="22.033" style="fill:rgb(218,165,165);"/>
            </g>
            <g transform="matrix(2.90895,1.1188,-0.328298,0.795613,-3047.61,-1801.69)">
                <ellipse cx="1791.77" cy="866.556" rx="21.522" ry="22.033" style="fill:rgb(249,183,182);"/>
            </g>
            <g transform="matrix(1.25525,0,0,1.14995,-520.247,-410.474)">
                <ellipse cx="1791.77" cy="866.556" rx="21.522" ry="22.033" style="fill:rgb(218,165,165);"/>
            </g>
            <g transform="matrix(-2.77585,0,0,2.39133,3084.64,-564.849)">
                <g transform="matrix(0.505675,0,0,0.505675,524.989,545.709)">
                    <path d="M0,-16.252C0.344,-11.145 1.304,-6.144 2.804,-1.334C13.651,33.82 53.348,59.884 100.669,59.884C156.353,59.884 201.486,23.798 201.486,-20.723C201.486,-26.127 200.822,-31.424 199.543,-36.531C195.78,-51.703 186.68,-65.328 173.915,-76.136L0,-16.252Z" style="fill:rgb(212,169,170);fill-rule:nonzero;"/>
                </g>
                <g transform="matrix(0.505675,0,0,0.505675,515.682,542.111)">
                    <path d="M0,-16.252C0.344,-11.145 1.304,-6.144 2.804,-1.334C13.651,33.82 53.348,59.884 100.669,59.884C156.353,59.884 201.486,23.798 201.486,-20.723C201.486,-26.127 200.822,-31.424 199.543,-36.531C195.78,-51.703 186.68,-65.328 173.915,-76.136L0,-16.252Z" style="fill-rule:nonzero;"/>
                </g>
                <g transform="matrix(0.505675,0,0,0.505675,517.351,543.496)">
                    <path d="M0,-41.819C-2.815,-40.755 -5.058,-39.27 -7.082,-37.674C-9.072,-36.058 -10.737,-34.26 -12.101,-32.334C-14.808,-28.488 -16.224,-24.055 -15.794,-19.536C-15.432,-15.032 -13.065,-10.494 -9.051,-6.972C-5.015,-3.467 0.363,-0.905 6.544,0C4.215,-4.069 2.11,-7.402 0.776,-10.666C-0.54,-13.921 -1.315,-16.965 -1.596,-20.16C-1.931,-23.343 -1.725,-26.657 -1.382,-30.214C-1.03,-33.792 -0.408,-37.497 0,-41.819" style="fill-rule:nonzero;"/>
                </g>
                <g transform="matrix(0,-0.505675,-0.505675,0,548.609,530.919)">
                    <path d="M-22.316,-22.316C-33.748,-22.316 -43.017,-12.325 -43.017,0C-43.017,12.325 -33.748,22.316 -22.316,22.316C-10.884,22.316 -1.615,12.325 -1.615,0C-1.615,-12.325 -10.884,-22.316 -22.316,-22.316" style="fill:white;fill-rule:nonzero;"/>
                </g>
                <g transform="matrix(0,-0.505675,-0.505675,0,560.983,558.768)">
                    <path d="M-11.158,-11.158C-15.413,-11.158 -18.862,-6.162 -18.862,-0C-18.862,6.162 -15.413,11.158 -11.158,11.158C-6.903,11.158 -3.454,6.162 -3.454,-0C-3.454,-6.162 -6.903,-11.158 -11.158,-11.158" style="fill:white;fill-rule:nonzero;"/>
                </g>
                <g transform="matrix(0,-0.505675,-0.505675,0,599.252,523.611)">
                    <path d="M-5.579,-5.579C-7.706,-5.579 -9.431,-3.081 -9.431,0C-9.431,3.081 -7.706,5.579 -5.579,5.579C-3.452,5.579 -1.727,3.081 -1.727,0C-1.727,-3.081 -3.452,-5.579 -5.579,-5.579" style="fill:white;fill-rule:nonzero;"/>
                </g>
                <g transform="matrix(0.505675,0,0,0.505675,648.076,533.908)">
                    <path d="M0,-78.649C-6.349,-79.56 -12.691,-79.996 -19.016,-80.294C-25.348,-80.603 -31.647,-80.654 -37.949,-80.621C-41.095,-80.59 -44.225,-80.483 -47.372,-80.409C-50.511,-80.311 -53.629,-80.127 -56.761,-79.97C-63.023,-79.644 -69.239,-79.117 -75.442,-78.505C-87.844,-77.269 -100.119,-75.475 -112.24,-73.22C-124.356,-70.953 -136.335,-68.259 -148.044,-64.988C-171.457,-58.508 -194.044,-50.024 -214.195,-39.036C-216.756,-37.726 -219.143,-36.196 -221.599,-34.782L-225.216,-32.593C-226.418,-31.863 -227.545,-31.05 -228.704,-30.279C-230.984,-28.698 -233.34,-27.215 -235.517,-25.568L-241.926,-20.575C-243.996,-18.877 -245.937,-17.074 -247.868,-15.307C-248.815,-14.405 -249.78,-13.527 -250.696,-12.616C-251.598,-11.691 -252.451,-10.738 -253.306,-9.794C-256.83,-6.098 -259.741,-2.076 -262.237,2.005C-259.298,0.996 -256.554,-0.088 -253.831,-1.146L-251.826,-1.958L-249.749,-2.71C-248.355,-3.2 -247.026,-3.727 -245.672,-4.228C-244.324,-4.735 -242.977,-5.232 -241.677,-5.757C-240.339,-6.255 -238.959,-6.718 -237.611,-7.195C-234.887,-8.132 -232.35,-9.182 -229.619,-10.066C-218.999,-13.844 -208.287,-17.233 -197.697,-20.623C-176.4,-27.283 -154.967,-33.435 -133.217,-39.469C-111.485,-45.52 -89.469,-51.387 -67.285,-57.681C-45.079,-64.045 -22.726,-70.442 0,-78.649" style="fill-rule:nonzero;"/>
                </g>
            </g>
            <g transform="matrix(2.36938,0.341543,-0.304819,1.97098,690.705,-494.525)">
                <g transform="matrix(0.461073,2.72677e-17,7.18957e-17,0.505675,517.733,550.478)">
                    <path d="M0,-16.252C0.344,-11.145 1.304,-6.144 2.804,-1.334C13.651,33.82 53.348,59.884 100.669,59.884C156.353,59.884 201.486,23.798 201.486,-20.723C201.486,-26.127 200.822,-31.424 199.543,-36.531C195.78,-51.703 186.68,-65.328 173.915,-76.136L0,-16.252Z" style="fill:rgb(212,169,170);fill-rule:nonzero;"/>
                </g>
                <g transform="matrix(0.505675,0,0,0.505675,515.682,542.111)">
                    <path d="M0,-16.252C0.344,-11.145 1.304,-6.144 2.804,-1.334C13.651,33.82 53.348,59.884 100.669,59.884C156.353,59.884 201.486,23.798 201.486,-20.723C201.486,-26.127 200.822,-31.424 199.543,-36.531C195.78,-51.703 186.68,-65.328 173.915,-76.136L0,-16.252Z" style="fill-rule:nonzero;"/>
                </g>
                <g transform="matrix(0.505675,0,0,0.505675,517.351,543.496)">
                    <path d="M0,-41.819C-2.815,-40.755 -5.058,-39.27 -7.082,-37.674C-9.072,-36.058 -10.737,-34.26 -12.101,-32.334C-14.808,-28.488 -16.224,-24.055 -15.794,-19.536C-15.432,-15.032 -13.065,-10.494 -9.051,-6.972C-5.015,-3.467 0.363,-0.905 6.544,0C4.215,-4.069 2.11,-7.402 0.776,-10.666C-0.54,-13.921 -1.315,-16.965 -1.596,-20.16C-1.931,-23.343 -1.725,-26.657 -1.382,-30.214C-1.03,-33.792 -0.408,-37.497 0,-41.819" style="fill-rule:nonzero;"/>
                </g>
                <g transform="matrix(0,-0.505675,-0.505675,0,573.58,523.212)">
                    <path d="M-22.316,-22.316C-33.748,-22.316 -43.017,-12.325 -43.017,0C-43.017,12.325 -33.748,22.316 -22.316,22.316C-10.884,22.316 -1.615,12.325 -1.615,0C-1.615,-12.325 -10.884,-22.316 -22.316,-22.316" style="fill:white;fill-rule:nonzero;"/>
                </g>
                <g transform="matrix(0,-0.505675,-0.505675,0,560.983,558.768)">
                    <path d="M-11.158,-11.158C-15.413,-11.158 -18.862,-6.162 -18.862,-0C-18.862,6.162 -15.413,11.158 -11.158,11.158C-6.903,11.158 -3.454,6.162 -3.454,-0C-3.454,-6.162 -6.903,-11.158 -11.158,-11.158" style="fill:white;fill-rule:nonzero;"/>
                </g>
                <g transform="matrix(0,-0.505675,-0.505675,0,599.252,523.611)">
                    <path d="M-5.579,-5.579C-7.706,-5.579 -9.431,-3.081 -9.431,0C-9.431,3.081 -7.706,5.579 -5.579,5.579C-3.452,5.579 -1.727,3.081 -1.727,0C-1.727,-3.081 -3.452,-5.579 -5.579,-5.579" style="fill:white;fill-rule:nonzero;"/>
                </g>
                <g transform="matrix(0.505675,0,0,0.505675,648.076,533.908)">
                    <path d="M0,-78.649C-6.349,-79.56 -12.691,-79.996 -19.016,-80.294C-25.348,-80.603 -31.647,-80.654 -37.949,-80.621C-41.095,-80.59 -44.225,-80.483 -47.372,-80.409C-50.511,-80.311 -53.629,-80.127 -56.761,-79.97C-63.023,-79.644 -69.239,-79.117 -75.442,-78.505C-87.844,-77.269 -100.119,-75.475 -112.24,-73.22C-124.356,-70.953 -136.335,-68.259 -148.044,-64.988C-171.457,-58.508 -194.044,-50.024 -214.195,-39.036C-216.756,-37.726 -219.143,-36.196 -221.599,-34.782L-225.216,-32.593C-226.418,-31.863 -227.545,-31.05 -228.704,-30.279C-230.984,-28.698 -233.34,-27.215 -235.517,-25.568L-241.926,-20.575C-243.996,-18.877 -245.937,-17.074 -247.868,-15.307C-248.815,-14.405 -249.78,-13.527 -250.696,-12.616C-251.598,-11.691 -252.451,-10.738 -253.306,-9.794C-256.83,-6.098 -259.741,-2.076 -262.237,2.005C-259.298,0.996 -256.554,-0.088 -253.831,-1.146L-251.826,-1.958L-249.749,-2.71C-248.355,-3.2 -247.026,-3.727 -245.672,-4.228C-244.324,-4.735 -242.977,-5.232 -241.677,-5.757C-240.339,-6.255 -238.959,-6.718 -237.611,-7.195C-234.887,-8.132 -232.35,-9.182 -229.619,-10.066C-218.999,-13.844 -208.287,-17.233 -197.697,-20.623C-176.4,-27.283 -154.967,-33.435 -133.217,-39.469C-111.485,-45.52 -89.469,-51.387 -67.285,-57.681C-45.079,-64.045 -22.726,-70.442 0,-78.649" style="fill-rule:nonzero;"/>
                </g>
            </g>
            <g transform="matrix(1.44175,0,0,1.39192,-765.656,-26.8941)">
                <path d="M1835.48,700.804L1825.17,717.73C1821.52,707.196 1809.51,683.337 1773.71,672.85C1760.8,669.067 1744.72,667.062 1724.85,668.388C1714.01,669.111 1702.01,670.817 1688.82,673.927C1678.07,676.462 1666.53,679.969 1654.13,684.466C1638.88,690.002 1622.36,697.079 1604.42,705.913C1589.55,713.238 1573.81,721.841 1556.95,731.687C1556.23,732.061 1555.95,732.965 1556.31,733.704C1556.67,734.444 1557.54,734.741 1558.26,734.367C1575.8,726.196 1592.17,719.31 1607.46,713.284C1625.71,706.093 1642.37,700.375 1657.63,695.791C1669.85,692.121 1681.14,689.263 1691.59,686.955C1704.19,684.17 1715.55,682.264 1725.85,681.243C1744.22,679.422 1759.12,680.266 1771.28,682.974C1813.92,692.466 1822.18,723.912 1822.18,723.912C1822.39,724.861 1823.13,725.583 1824.06,725.728C1824.99,725.873 1825.91,725.412 1826.37,724.567L1837.54,702.018C1837.86,701.43 1837.66,700.682 1837.1,700.347C1836.53,700.012 1835.81,700.217 1835.48,700.804Z"/>
            </g>
        </g>
    </g>
</svg>
